<svg xmlns="http://www.w3.org/2000/svg" width="34" height="37" viewBox="0 0 34 37">
    <path fill="#FF8A00" fill-rule="evenodd" d="M17.018 33.512C8.604 30.067 3.82 20.719 3.424 10.082 6.73 9.601 11.782 8.141 17 3.902c5.219 4.241 10.273 5.701 13.577 6.178-.506 14.198-8.385 21.36-13.56 23.43m15.43-26.605c-2.855-.197-8.51-1.304-14.33-6.48A1.67 1.67 0 0 0 17.001 0c-.401 0-.802.141-1.12.425C10.066 5.602 4.41 6.71 1.555 6.905.65 6.97 0 7.732 0 8.627c0 20.403 13.81 27.28 16.412 28.265a1.702 1.702 0 0 0 1.176.007C20.19 35.945 34 29.11 34 8.625c.002-.896-.65-1.655-1.552-1.72M11.49 16.659a1.774 1.774 0 0 0-2.47 0 1.691 1.691 0 0 0 0 2.424l4.919 4.799c.737.657 1.785.675 2.47 0l8.57-8.337a1.686 1.686 0 0 0 0-2.423 1.77 1.77 0 0 0-2.47 0l-7.334 7.126-3.685-3.59z"/>
</svg>
